<svg width="28" height="28" viewBox="0 0 28 28" fill="none" xmlns="http://www.w3.org/2000/svg">
<path d="M6.5 15.25H1.5C0.75 15.25 0.25 15.75 0.25 16.5V26.5C0.25 27.25 0.75 27.75 1.5 27.75H6.5C7.25 27.75 7.75 27.25 7.75 26.5V16.5C7.75 15.75 7.25 15.25 6.5 15.25ZM26.5 10.25H21.5C20.75 10.25 20.25 10.75 20.25 11.5V26.5C20.25 27.25 20.75 27.75 21.5 27.75H26.5C27.25 27.75 27.75 27.25 27.75 26.5V11.5C27.75 10.75 27.25 10.25 26.5 10.25ZM16.5 0.25H11.5C10.75 0.25 10.25 0.75 10.25 1.5V26.5C10.25 27.25 10.75 27.75 11.5 27.75H16.5C17.25 27.75 17.75 27.25 17.75 26.5V1.5C17.75 0.75 17.25 0.25 16.5 0.25Z" fill="white"/>
</svg>
