<svg width="31" height="23" viewBox="0 0 31 23" fill="none" xmlns="http://www.w3.org/2000/svg">
<path d="M0.5 2.125C0.5 1.62772 0.697544 1.15081 1.04918 0.799175C1.40081 0.447544 1.87772 0.25 2.375 0.25H28.625C29.1223 0.25 29.5992 0.447544 29.9508 0.799175C30.3025 1.15081 30.5 1.62772 30.5 2.125C30.5 2.62228 30.3025 3.09919 29.9508 3.45082C29.5992 3.80246 29.1223 4 28.625 4H2.375C1.87772 4 1.40081 3.80246 1.04918 3.45082C0.697544 3.09919 0.5 2.62228 0.5 2.125ZM0.5 11.5C0.5 11.0027 0.697544 10.5258 1.04918 10.1742C1.40081 9.82254 1.87772 9.625 2.375 9.625H28.625C29.1223 9.625 29.5992 9.82254 29.9508 10.1742C30.3025 10.5258 30.5 11.0027 30.5 11.5C30.5 11.9973 30.3025 12.4742 29.9508 12.8258C29.5992 13.1775 29.1223 13.375 28.625 13.375H2.375C1.87772 13.375 1.40081 13.1775 1.04918 12.8258C0.697544 12.4742 0.5 11.9973 0.5 11.5ZM0.5 20.875C0.5 20.3777 0.697544 19.9008 1.04918 19.5492C1.40081 19.1975 1.87772 19 2.375 19H28.625C29.1223 19 29.5992 19.1975 29.9508 19.5492C30.3025 19.9008 30.5 20.3777 30.5 20.875C30.5 21.3723 30.3025 21.8492 29.9508 22.2008C29.5992 22.5525 29.1223 22.75 28.625 22.75H2.375C1.87772 22.75 1.40081 22.5525 1.04918 22.2008C0.697544 21.8492 0.5 21.3723 0.5 20.875Z" fill="#4B9447"/>
</svg>
