<svg width="26" height="25" viewBox="0 0 26 25" fill="none" xmlns="http://www.w3.org/2000/svg">
<path d="M0.5 5C0.5 2.6425 0.5 1.465 1.2325 0.7325C1.965 -7.45058e-08 3.1425 0 5.5 0C7.8575 0 9.035 -7.45058e-08 9.7675 0.7325C10.5 1.465 10.5 2.6425 10.5 5V20C10.5 22.3575 10.5 23.535 9.7675 24.2675C9.035 25 7.8575 25 5.5 25C3.1425 25 1.965 25 1.2325 24.2675C0.5 23.535 0.5 22.3575 0.5 20V5ZM15.5 5C15.5 2.6425 15.5 1.465 16.2325 0.7325C16.965 -7.45058e-08 18.1425 0 20.5 0C22.8575 0 24.035 -7.45058e-08 24.7675 0.7325C25.5 1.465 25.5 2.6425 25.5 5V20C25.5 22.3575 25.5 23.535 24.7675 24.2675C24.035 25 22.8575 25 20.5 25C18.1425 25 16.965 25 16.2325 24.2675C15.5 23.535 15.5 22.3575 15.5 20V5Z" fill="white"/>
</svg>
