<svg width="26" height="26" viewBox="0 0 26 26" fill="none" xmlns="http://www.w3.org/2000/svg">
<path fill-rule="evenodd" clip-rule="evenodd" d="M13 0.5C6.09625 0.5 0.5 6.09625 0.5 13C0.5 19.9037 6.09625 25.5 13 25.5C19.9037 25.5 25.5 19.9037 25.5 13C25.5 6.09625 19.9037 0.5 13 0.5ZM8.625 9.875C8.625 9.30047 8.73816 8.73156 8.95803 8.20076C9.17789 7.66996 9.50015 7.18766 9.90641 6.78141C10.3127 6.37515 10.795 6.05289 11.3258 5.83303C11.8566 5.61316 12.4255 5.5 13 5.5C13.5745 5.5 14.1434 5.61316 14.6742 5.83303C15.205 6.05289 15.6873 6.37515 16.0936 6.78141C16.4998 7.18766 16.8221 7.66996 17.042 8.20076C17.2618 8.73156 17.375 9.30047 17.375 9.875C17.375 11.0353 16.9141 12.1481 16.0936 12.9686C15.2731 13.7891 14.1603 14.25 13 14.25C11.8397 14.25 10.7269 13.7891 9.90641 12.9686C9.08594 12.1481 8.625 11.0353 8.625 9.875ZM20.8225 19.23C19.8868 20.407 18.6973 21.3574 17.3427 22.0103C15.9882 22.6631 14.5036 23.0014 13 23C11.4964 23.0014 10.0118 22.6631 8.65729 22.0103C7.30275 21.3574 6.1132 20.407 5.1775 19.23C7.20375 17.7762 9.96875 16.75 13 16.75C16.0312 16.75 18.7962 17.7762 20.8225 19.23Z" fill="white"/>
</svg>
