<svg width="50" viewBox="0 0 196 196" fill="none" xmlns="http://www.w3.org/2000/svg">
<path fill-rule="evenodd" clip-rule="evenodd" d="M98 0.5C44.1508 0.5 0.5 44.1508 0.5 98C0.5 151.849 44.1508 195.5 98 195.5C151.849 195.5 195.5 151.849 195.5 98C195.5 44.1508 151.849 0.5 98 0.5ZM63.875 73.625C63.875 69.1436 64.7577 64.7062 66.4726 60.5659C68.1875 56.4257 70.7012 52.6638 73.87 49.495C77.0388 46.3262 80.8007 43.8126 84.9409 42.0976C89.0812 40.3827 93.5186 39.5 98 39.5C102.481 39.5 106.919 40.3827 111.059 42.0976C115.199 43.8126 118.961 46.3262 122.13 49.495C125.299 52.6638 127.812 56.4257 129.527 60.5659C131.242 64.7062 132.125 69.1436 132.125 73.625C132.125 82.6755 128.53 91.3553 122.13 97.755C115.73 104.155 107.051 107.75 98 107.75C88.9495 107.75 80.2697 104.155 73.87 97.755C67.4703 91.3553 63.875 82.6755 63.875 73.625ZM159.015 146.594C151.717 155.775 142.439 163.188 131.873 168.28C121.308 173.372 109.728 176.011 98 176C86.2716 176.011 74.6923 173.372 64.1268 168.28C53.5614 163.188 44.283 155.775 36.9845 146.594C52.7893 135.255 74.3563 127.25 98 127.25C121.644 127.25 143.211 135.255 159.015 146.594Z" fill="url(#paint0_linear_236_178)"/>
<defs>
<linearGradient id="paint0_linear_236_178" x1="98" y1="0.5" x2="98" y2="195.5" gradientUnits="userSpaceOnUse">
<stop stop-color="#95DF8D"/>
<stop offset="1" stop-color="#4B9447"/>
</linearGradient>
</defs>
</svg>
