<svg width="30" height="22" viewBox="0 0 30 22" fill="none" xmlns="http://www.w3.org/2000/svg">
<path fill-rule="evenodd" clip-rule="evenodd" d="M3.21429 0.285706C2.3618 0.285706 1.54424 0.624353 0.941442 1.22715C0.338647 1.82994 0 2.64751 0 3.49999L0 18.5C0 19.3525 0.338647 20.17 0.941442 20.7728C1.54424 21.3756 2.3618 21.7143 3.21429 21.7143H19.2857C20.1382 21.7143 20.9558 21.3756 21.5586 20.7728C22.1614 20.17 22.5 19.3525 22.5 18.5V16.91L27.0129 18.845C27.3391 18.9848 27.695 19.0415 28.0485 19.0098C28.4021 18.9781 28.7422 18.859 29.0384 18.6634C29.3345 18.4677 29.5775 18.2015 29.7453 17.8887C29.9132 17.576 30.0007 17.2264 30 16.8714V5.12642C30 4.77182 29.9119 4.42277 29.7438 4.11057C29.5756 3.79837 29.3326 3.53277 29.0366 3.33759C28.7405 3.14242 28.4007 3.02376 28.0475 2.99227C27.6943 2.96077 27.3388 3.01742 27.0129 3.15713L22.5 5.09213V3.49999C22.5 2.64751 22.1614 1.82994 21.5586 1.22715C20.9558 0.624353 20.1382 0.285706 19.2857 0.285706H3.21429Z" fill="white"/>
</svg>
