<svg xmlns="http://www.w3.org/2000/svg" viewBox="0 0 1120.92 280.94"><defs><style>.bf1abc96-16af-411b-aefc-6ebaf6d49a07{fill:#ffad12;}.a3abb61e-3b50-403b-8788-65e29ed8bea9{fill:#ffdeb2;}.fef3cf78-2b6e-49c0-b110-2325dc234ac2{fill:#ffc069;}.a61bc735-3410-48cb-bf10-86a0dd54a1e9{fill:#fd9d02;}</style></defs><g id="f87075fe-8f51-4c9b-b9a0-e7d8f99e6949"><g id="a65d3aaa-a7ca-48c6-af85-91f57cc8a63c"><path class="bf1abc96-16af-411b-aefc-6ebaf6d49a07" d="M326.88,104.05V90.33a5.08,5.08,0,0,1,3.78-4.92l2.88-.78A5.1,5.1,0,0,1,340,89.55V99a5.09,5.09,0,0,0,5.09,5.09h9a5.09,5.09,0,0,1,5.09,5.09h0a5.09,5.09,0,0,1-5.09,5.09h-9a5.09,5.09,0,0,0-5.09,5.09V153.9c0,9.12,2.58,14.29,10,14.29.95,0,1.83,0,2.65-.09a5.08,5.08,0,0,1,5.44,4.76l0,.35a5.08,5.08,0,0,1-4.18,5.32,42.34,42.34,0,0,1-7.42.6c-6.24,0-11.25-2-14.44-5.62-3.8-3.95-5.17-10.49-5.17-19.15V114.23"/><path class="bf1abc96-16af-411b-aefc-6ebaf6d49a07" d="M385.08,143.26a5,5,0,0,0-4.85,5.87c2.46,13.85,12.86,19.67,24.69,19.67a52.49,52.49,0,0,0,15.46-2,4.92,4.92,0,0,1,6.19,3.59h0a4.94,4.94,0,0,1-3.25,5.83,65.05,65.05,0,0,1-20.23,2.92c-22.64,0-36.17-14.89-36.17-37.08s13.07-39.67,34.5-39.67c24,0,30.4,21.12,30.4,34.65q0,.78,0,1.5a4.93,4.93,0,0,1-4.93,4.73Zm28.49-9.57a4.91,4.91,0,0,0,4.87-5.72c-1.38-7.69-6.14-16-18.08-16-10.49,0-16.41,7.49-19,15.18a5,5,0,0,0,4.67,6.56Z"/><path class="bf1abc96-16af-411b-aefc-6ebaf6d49a07" d="M499.86,170.62a5.15,5.15,0,0,1-3.47,6,55.38,55.38,0,0,1-16.69,2.47c-22.19,0-36.63-15-36.63-37.54,0-22.65,15.5-39.06,39.52-39.06a49.25,49.25,0,0,1,13.7,2,5.16,5.16,0,0,1,3.5,6.4l-.08.28a5.15,5.15,0,0,1-6.46,3.45,36.49,36.49,0,0,0-10.66-1.44c-16.87,0-26,12.46-26,27.81,0,17,10.94,27.51,25.53,27.51a37,37,0,0,0,11.18-1.64,5.15,5.15,0,0,1,6.55,3.77Z"/><path class="bf1abc96-16af-411b-aefc-6ebaf6d49a07" d="M516.48,124c0-5.06-.06-9.52-.24-13.72a5.92,5.92,0,0,1,5.92-6.19h0a5.93,5.93,0,0,1,5.92,5.56l.41,6.6h.31c3.64-7,12.16-13.83,24.32-13.83,10.18,0,26,6.08,26,31.31v38a5.93,5.93,0,0,1-5.94,5.93h-1.51a5.93,5.93,0,0,1-5.93-5.93V135.21c0-11.86-4.41-21.74-17-21.74-8.82,0-15.66,6.23-17.94,13.68a19.16,19.16,0,0,0-.91,6.23v38.3a5.93,5.93,0,0,1-5.93,5.93h-1.51a5.93,5.93,0,0,1-5.94-5.93Z"/><path class="bf1abc96-16af-411b-aefc-6ebaf6d49a07" d="M667.42,140.22c0,27.21-18.85,39.06-36.63,39.06-19.91,0-35.27-14.59-35.27-37.84,0-24.62,16.12-39.06,36.48-39.06C653.13,102.38,667.42,117.73,667.42,140.22Zm-58.37.76c0,16.11,9.27,28.27,22.35,28.27,12.76,0,22.34-12,22.34-28.57,0-12.47-6.23-28.27-22-28.27S609.05,127,609.05,141Z"/><path class="bf1abc96-16af-411b-aefc-6ebaf6d49a07" d="M691,69.7h0a6.69,6.69,0,0,1,6.69,6.68v94.54a6.69,6.69,0,0,1-6.69,6.69h0a6.69,6.69,0,0,1-6.69-6.69V76.38A6.69,6.69,0,0,1,691,69.7Z"/><path class="bf1abc96-16af-411b-aefc-6ebaf6d49a07" d="M786.73,140.22c0,27.21-18.84,39.06-36.63,39.06-19.91,0-35.26-14.59-35.26-37.84,0-24.62,16.11-39.06,36.48-39.06C772.45,102.38,786.73,117.73,786.73,140.22Zm-58.36.76c0,16.11,9.27,28.27,22.34,28.27,12.77,0,22.35-12,22.35-28.57,0-12.47-6.24-28.27-22-28.27S728.37,127,728.37,141Z"/><path class="bf1abc96-16af-411b-aefc-6ebaf6d49a07" d="M861.35,104.05a5.36,5.36,0,0,1,5.35,5.61c-.18,4-.32,8.62-.32,14.6V167c0,16.87-3.34,27.21-10.48,33.59-7.15,6.69-17.48,8.82-26.75,8.82A53.38,53.38,0,0,1,809,205.59a5.31,5.31,0,0,1-2.9-6.56h0a5.37,5.37,0,0,1,7.18-3.26,43.58,43.58,0,0,0,16.34,3.12c13.68,0,23.71-7.14,23.71-25.68V165H853c-4.11,6.84-12,12.31-23.41,12.31-18.24,0-31.31-15.51-31.31-35.87,0-24.93,16.26-39.06,33.13-39.06,12.77,0,19.76,6.68,23,12.76h.3l.33-6a5.35,5.35,0,0,1,5.35-5.06Zm-8.19,29a19,19,0,0,0-.76-6.08c-2.43-7.75-9-14.14-18.7-14.14-12.76,0-21.88,10.79-21.88,27.82,0,14.44,7.29,26.44,21.73,26.44a19.55,19.55,0,0,0,18.55-13.67,23.3,23.3,0,0,0,1.06-7.15Z"/><path class="bf1abc96-16af-411b-aefc-6ebaf6d49a07" d="M902.56,83.38c.15,4.56-3.19,8.2-8.51,8.2a8,8,0,0,1-8.06-8.2A8.15,8.15,0,0,1,894.35,75C899.37,75,902.56,78.67,902.56,83.38Zm-14.9,87.54V110.74a6.69,6.69,0,0,1,6.69-6.69h0a6.68,6.68,0,0,1,6.69,6.69v60.18a6.68,6.68,0,0,1-6.69,6.69h0A6.69,6.69,0,0,1,887.66,170.92Z"/><path class="bf1abc96-16af-411b-aefc-6ebaf6d49a07" d="M921.41,163.93A35,35,0,0,0,939,169.25c9.73,0,14.29-4.86,14.29-10.94,0-6.38-3.8-9.88-13.68-13.53-13.23-4.71-19.46-12-19.46-20.82,0-11.86,9.58-21.58,25.38-21.58a36.62,36.62,0,0,1,18.09,4.56l-3.34,9.72a28.69,28.69,0,0,0-15.05-4.25c-7.9,0-12.31,4.56-12.31,10,0,6.08,4.41,8.81,14,12.46,12.77,4.87,19.31,11.25,19.31,22.19,0,12.92-10,22-27.52,22-8.05,0-15.5-2-20.67-5Z"/><path class="bf1abc96-16af-411b-aefc-6ebaf6d49a07" d="M999.53,89.55V99a5.09,5.09,0,0,0,5.1,5.09h9a5.09,5.09,0,0,1,5.1,5.09h0a5.09,5.09,0,0,1-5.1,5.09h-9a5.09,5.09,0,0,0-5.1,5.09V153.9c0,9.12,2.59,14.29,10,14.29.94,0,1.83,0,2.64-.09a5.09,5.09,0,0,1,5.45,4.76l0,.35a5.09,5.09,0,0,1-4.19,5.32,42.34,42.34,0,0,1-7.42.6c-6.23,0-11.25-2-14.44-5.62-3.8-3.95-5.17-10.49-5.17-19.15v-35a5.09,5.09,0,0,0-5.09-5.09h-1.22a5.09,5.09,0,0,1-5.09-5.09h0a5.09,5.09,0,0,1,5.09-5.09h1.22A5.09,5.09,0,0,0,986.46,99V90.33a5.08,5.08,0,0,1,3.78-4.92l2.89-.78A5.09,5.09,0,0,1,999.53,89.55Z"/><path class="bf1abc96-16af-411b-aefc-6ebaf6d49a07" d="M1048.63,83.38c.15,4.56-3.19,8.2-8.51,8.2a8,8,0,0,1-8.06-8.2,8.15,8.15,0,0,1,8.36-8.36C1045.44,75,1048.63,78.67,1048.63,83.38Zm-14.9,87.54V110.74a6.69,6.69,0,0,1,6.69-6.69h0a6.68,6.68,0,0,1,6.69,6.69v60.18a6.68,6.68,0,0,1-6.69,6.69h0A6.69,6.69,0,0,1,1033.73,170.92Z"/><path class="bf1abc96-16af-411b-aefc-6ebaf6d49a07" d="M1120.77,170.62a5.15,5.15,0,0,1-3.47,6,55.33,55.33,0,0,1-16.69,2.47c-22.19,0-36.63-15-36.63-37.54,0-22.65,15.5-39.06,39.52-39.06a49.25,49.25,0,0,1,13.7,2,5.16,5.16,0,0,1,3.51,6.39l-.09.29a5.15,5.15,0,0,1-6.46,3.45,36.49,36.49,0,0,0-10.66-1.44c-16.87,0-26,12.46-26,27.81,0,17,10.94,27.51,25.53,27.51a37,37,0,0,0,11.18-1.64,5.14,5.14,0,0,1,6.55,3.77Z"/><polygon class="a3abb61e-3b50-403b-8788-65e29ed8bea9" points="0 70.23 0 210.71 121.65 280.94 243.3 210.71 243.3 70.23 121.65 0 0 70.23"/><polygon class="fef3cf78-2b6e-49c0-b110-2325dc234ac2" points="0 70.23 243.3 210.71 121.65 280.94 0 210.71 0 70.23"/><polygon class="a61bc735-3410-48cb-bf10-86a0dd54a1e9" points="0 210.71 121.65 140.47 243.3 210.71 121.65 280.94 0 210.71"/></g></g></svg>